<svg width="12" height="12" viewBox="0 0 12 12" fill="none" xmlns="http://www.w3.org/2000/svg">
<path d="M10.4102 0.75H1.64719C1.16836 0.75 0.75 1.09453 0.75 1.56773V10.3502C0.75 10.826 1.16836 11.25 1.64719 11.25H10.4077C10.8891 11.25 11.25 10.8232 11.25 10.3502V1.56773C11.2528 1.09453 10.8891 0.75 10.4102 0.75ZM4.00477 9.50227H2.50055V4.82531H4.00477V9.50227ZM3.30469 4.11422H3.29391C2.8125 4.11422 2.50078 3.75586 2.50078 3.30727C2.50078 2.85047 2.8207 2.50055 3.31289 2.50055C3.80508 2.50055 4.10625 2.84789 4.11703 3.30727C4.1168 3.75586 3.80508 4.11422 3.30469 4.11422ZM9.50226 9.50227H7.99805V6.945C7.99805 6.33234 7.77914 5.91375 7.23492 5.91375C6.81914 5.91375 6.57305 6.195 6.46359 6.46898C6.42258 6.56742 6.41156 6.70148 6.41156 6.83836V9.50227H4.90734V4.82531H6.41156V5.47617C6.63047 5.16445 6.97242 4.71586 7.76812 4.71586C8.75555 4.71586 9.5025 5.36672 9.5025 6.76992L9.50226 9.50227Z" fill="black"/>
</svg>
